<svg class="main-svg" xmlns="http://www.w3.org/2000/svg" xmlns:xlink="http://www.w3.org/1999/xlink" width="372" height="336" style="" viewBox="0 0 372 336"><rect x="0" y="0" width="372" height="336" style="fill: rgb(255, 255, 255); fill-opacity: 1;"/><defs id="defs-e10c03"><g class="clips"><clipPath id="clipe10c03xyplot" class="plotclip"><rect width="194" height="216"/></clipPath><clipPath class="axesclip" id="clipe10c03x"><rect x="60" y="0" width="194" height="336"/></clipPath><clipPath class="axesclip" id="clipe10c03y"><rect x="0" y="60" width="372" height="216"/></clipPath><clipPath class="axesclip" id="clipe10c03xy"><rect x="60" y="60" width="194" height="216"/></clipPath></g><g class="gradients"/><g class="patterns"/></defs><g class="bglayer"/><g class="layer-below"><g class="imagelayer"/><g class="shapelayer"/></g><g class="cartesianlayer"><g class="subplot xy"><g class="layer-subplot"><g class="shapelayer"/><g class="imagelayer"/></g><g class="gridlayer"><g class="x"><path class="xgrid crisp" transform="translate(67.37,0)" d="M0,60v216" style="stroke: rgb(238, 238, 238); stroke-opacity: 1; stroke-width: 1px;"/><path class="xgrid crisp" transform="translate(142.63,0)" d="M0,60v216" style="stroke: rgb(238, 238, 238); stroke-opacity: 1; stroke-width: 1px;"/><path class="xgrid crisp" transform="translate(217.88,0)" d="M0,60v216" style="stroke: rgb(238, 238, 238); stroke-opacity: 1; stroke-width: 1px;"/></g><g class="y"><path class="ygrid crisp" transform="translate(0,202.67)" d="M60,0h194" style="stroke: rgb(238, 238, 238); stroke-opacity: 1; stroke-width: 1px;"/><path class="ygrid crisp" transform="translate(0,138.3)" d="M60,0h194" style="stroke: rgb(238, 238, 238); stroke-opacity: 1; stroke-width: 1px;"/><path class="ygrid crisp" transform="translate(0,73.93)" d="M60,0h194" style="stroke: rgb(238, 238, 238); stroke-opacity: 1; stroke-width: 1px;"/></g></g><g class="zerolinelayer"><path class="yzl zl crisp" transform="translate(0,267.03)" d="M60,0h194" style="stroke: rgb(68, 68, 68); stroke-opacity: 1; stroke-width: 1px;"/></g><path class="xlines-below"/><path class="ylines-below"/><g class="overlines-below"/><g class="xaxislayer-below"/><g class="yaxislayer-below"/><g class="overaxes-below"/><g class="plot" transform="translate(60,60)" clip-path="url(#clipe10c03xyplot)"><g class="scatterlayer mlayer"><g class="trace scatter trace119d41" style="stroke-miterlimit: 2; opacity: 1;"><g class="fills"/><g class="errorbars"/><g class="lines"><path class="js-line" d="M0,197.53L0.15,10.8L0.6,202.15L0.75,73.17L0.75,202.37L0.9,77.95L1.35,204.2L1.51,89.79L1.51,204.22L1.66,87.48L2.11,204.68L2.26,94.15L2.26,204.51L2.41,95.23L2.71,205L3.01,97.07L3.01,204.63L3.16,97.39L3.46,205.02L3.76,99.25L3.76,204.69L3.91,100.51L4.21,205.08L4.52,102.31L4.52,204.78L4.82,205.07L5.12,103.45L5.27,104.2L5.27,204.83L5.57,205.09L5.87,104.75L6.02,105.14L6.02,204.84L6.32,205.06L6.62,105.8L6.77,107.78L6.77,204.91L6.92,205.13L7.22,107.2L7.53,111.35L7.53,205.04L7.68,205.15L7.98,107.21L8.28,112.34L8.28,205.1L8.73,107.62L9.03,113.85L9.03,205.15L9.33,109.67L9.93,112.1L9.93,204.96L10.08,109.86L10.38,205.09L10.69,111.44L10.69,204.91L11.14,205.14L11.44,111.46L11.44,204.86L11.59,112.95L11.89,205.18L12.19,112.28L12.34,204.87L12.49,117.58L12.94,112.58L13.24,205.17L13.39,116.14L13.7,112.16L14,205.15L14.15,115.1L14.3,113.55L14.6,205.11L14.9,204.94L15.05,114.33L15.35,205.16L15.65,112.97L15.8,204.86L15.95,117.74L16.1,205.17L16.4,112.85L16.56,204.91L16.71,119.28L17.16,114.34L17.46,205.18L17.61,118.61L17.76,115.25L18.21,205.14L18.36,204.96L18.51,115.27L18.81,205.1L19.26,115.17L19.26,204.83L19.42,117.38L19.57,205.13L19.87,114.7L20.17,205.07L20.32,121L20.32,205.18L20.62,115.32L21.07,205.14L21.22,116.94L21.37,115.74L21.67,205.18L21.97,204.86L22.12,116.13L22.43,205.13L22.73,204.81L22.88,118.22L23.03,205.1L23.48,116.49L23.63,204.98L23.78,121.47L24.08,116.33L24.53,205.18L24.68,118.48L24.83,115.48L25.13,205.15L25.28,205.14L25.44,117.18L25.59,115.28L25.89,205.17L26.19,204.85L26.34,117.16L26.64,205.16L26.94,116.73L27.09,204.92L27.24,121.28L27.54,117.71L27.99,205.15L28.14,121.13L28.45,117.79L28.75,205.17L28.9,119.55L29.05,117.37L29.35,205.15L29.65,204.89L29.8,117.5L30.1,205.17L30.55,116.66L30.55,204.87L30.7,121.08L30.85,205.16L31.15,117.5L31.3,204.96L31.46,120.99L31.91,118.17L32.21,205.15L32.36,121.57L32.66,118.17L32.96,205.17L33.11,204.96L33.26,117.91L33.56,205.16L34.01,204.87L34.16,119.96L34.31,205.17L34.77,117.6L34.77,204.84L34.92,120.82L35.07,205.15L35.37,117.04L35.67,205.1L35.82,122.25L36.12,118.63L36.42,205.16L36.57,205.07L36.72,117.96L36.87,117.53L37.17,205.18L37.33,204.95L37.48,117.85L37.78,205.15L38.23,204.84L38.38,120.33L38.53,205.18L38.83,118.57L39.13,205.06L39.28,123.47L39.28,205.15L39.58,118.2L40.03,205.09L40.18,119.31L40.34,118.26L40.64,205.14L40.79,205.04L40.94,117.69L41.39,205.19L41.69,204.88L41.84,119.71L41.99,205.16L42.44,117.85L42.59,204.96L42.74,123.67L42.74,205.18L43.19,118.35L43.35,205.04L43.5,122.48L43.5,205.14L43.8,118.34L44.25,205.08L44.4,117.63L44.85,205.13L45.15,204.89L45.3,117.87L45.6,205.18L45.9,117.81L46.05,204.86L46.2,123.38L46.2,205.15L46.66,117.82L46.81,204.97L46.96,123.65L46.96,205.18L47.26,118.29L47.71,205.16L47.86,121.52L48.01,118.54L48.31,205.1L48.61,204.89L48.76,118.71L49.06,205.15L49.37,118.42L49.37,204.84L49.52,118.23L49.82,205.17L50.27,204.93L50.42,124.03L50.87,118.64L51.17,205.18L51.32,122.27L51.62,118.8L51.92,205.16L52.07,204.98L52.22,118.94L52.68,205.13L52.83,204.9L52.98,119.18L53.28,205.16L53.73,118.76L53.73,204.87L53.88,122.4L54.03,205.18L54.33,119.25L54.63,205.14L54.78,123.95L55.08,118.99L55.39,205.19L55.54,122.53L55.84,118.59L56.14,205.16L56.29,204.97L56.44,118.52L56.74,205.12L57.19,118.5L57.19,204.84L57.34,121.25L57.49,205.15L57.79,118.19L58.09,205.06L58.25,124.35L58.25,205.19L58.55,118.96L59,205.15L59.15,119.16L59.3,118.12L59.6,205.18L59.9,204.91L60.05,119.43L60.35,205.12L60.65,118.76L60.8,204.87L60.95,123.37L60.95,205.1L61.41,118.55L61.56,204.99L61.71,124.34L62.01,119.55L62.46,205.19L62.61,121.26L63.06,205.17L63.36,119.01L63.36,204.87L63.51,118.82L63.81,205.18L64.11,204.89L64.27,118.89L64.57,205.16L64.87,118.47L65.02,204.92L65.17,122.99L65.62,119.74L65.92,205.14L66.07,123.02L66.22,118.84L66.67,205.18L66.82,204.98L66.97,119.01L67.28,205.15L67.58,204.93L67.73,119.57L68.03,205.18L68.48,118.33L68.48,204.83L68.63,121.74L68.78,205.15L69.08,118.2L69.38,205.14L69.53,123.48L69.83,118.47L70.13,205.13L70.29,122.6L70.44,119.13L70.89,205.17L71.04,204.97L71.19,119.58L71.34,118.73L71.64,205.16L71.94,204.85L72.09,120.52L72.24,205.18L72.54,118.62L72.84,205.02L72.99,123.62L72.99,205.14L73.3,118.6L73.6,205.12L73.75,123.43L74.05,120.05L74.35,205.16L74.5,205.05L74.65,118.8L75.1,205.18L75.4,204.84L75.55,119.61L75.85,205.17L76.16,118.47L76.16,204.79L76.31,120.76L76.46,205.18L76.91,119.27L77.06,205.08L77.21,124.23L77.21,205.15L77.51,118.96L77.96,205.12L78.11,120.43L78.56,205.16L78.86,118.68L78.86,204.82L79.01,119.18L79.32,205.17L79.62,204.82L79.77,120.65L79.92,205.14L80.37,119.23L80.52,204.95L80.67,124.56L80.67,205.17L81.12,118.95L81.42,205.16L81.57,121.06L81.72,119.58L82.02,205.12L82.18,205.09L82.33,120.46L82.78,205.13L83.08,118.87L83.08,204.83L83.23,119.68L83.53,205.18L83.83,119.27L83.98,204.89L84.13,124.39L84.58,119.13L84.88,205.2L85.03,122.9L85.34,119.38L85.64,205.13L85.79,122L85.94,119.09L86.24,205.14L86.54,204.91L86.69,119.44L86.99,205.14L87.44,119.12L87.44,204.86L87.59,122.89L87.74,205.19L88.04,120.06L88.2,204.9L88.35,124.94L88.8,119L89.1,205.19L89.25,123.42L89.55,119.86L89.85,205.15L90,204.99L90.15,119.6L90.45,205.1L90.9,119.01L90.9,204.81L91.06,121.48L91.21,205.15L91.51,118.74L91.81,205.08L91.96,124.58L91.96,205.18L92.26,119.69L92.71,205.15L92.86,119.81L93.31,205.19L93.61,119.79L93.61,204.89L93.76,119.83L94.07,205.16L94.37,119.65L94.37,204.86L94.52,120.51L94.67,205.1L95.12,119.12L95.27,204.99L95.42,124.77L95.87,119.45L96.17,205.19L96.32,121.55L96.47,119.8L96.92,205.16L97.08,120.99L97.53,205.17L97.83,119.92L97.83,204.89L97.98,119.72L98.28,205.13L98.58,119.24L98.73,204.94L98.88,123.12L99.18,119.75L99.63,205.14L99.78,122.52L99.93,117.71L100.39,205.18L100.54,120.88L100.69,119.75L100.99,205.15L101.29,204.97L101.44,119.21L101.74,205.18L102.19,204.84L102.34,122.67L102.49,205.16L102.79,119.16L102.94,204.95L103.1,124L103.55,120.05L103.85,205.15L104,122.49L104.3,119.69L104.6,205.17L104.75,204.98L104.9,118.96L105.2,205.14L105.65,204.87L105.8,121.32L105.96,205.18L106.41,118.95L106.41,204.82L106.56,122.08L106.71,205.17L107.01,118.93L107.31,205.11L107.46,122.49L107.76,119.86L108.06,205.15L108.21,205.07L108.36,120.33L108.51,120.04L108.81,205.17L108.97,204.95L109.12,119.94L109.42,205.15L109.87,119.12L109.87,204.8L110.02,121.93L110.17,205.18L110.62,119.64L110.77,205.05L110.92,124.12L110.92,205.15L111.37,118.81L111.67,205.1L111.82,120.63L111.98,119.87L112.28,205.17L112.43,205.04L112.58,119.35L113.03,205.19L113.33,204.84L113.48,120.47L113.63,205.14L114.08,118.97L114.23,204.98L114.38,124.86L114.38,205.19L114.83,118.48L114.99,205.04L115.14,124.87L115.14,205.16L115.44,119.37L115.89,205.08L116.04,120.13L116.19,119.87L116.49,205.14L116.79,204.85L116.94,119.35L117.24,205.18L117.69,204.92L117.84,124.83L117.84,205.15L118.3,119.28L118.45,204.95L118.6,124.83L118.6,205.19L119.05,119.98L119.35,205.15L119.5,121.97L119.65,119.35L120.1,205.12L120.25,204.91L120.4,119.34L120.7,205.14L121.01,119.24L121.01,204.85L121.16,120.2L121.46,205.19L121.76,119.23L121.91,204.93L122.06,124.72L122.51,119.82L122.81,205.18L122.96,123.07L123.11,119.49L123.56,205.15L123.71,204.98L123.87,119.12L124.17,205.11L124.62,204.85L124.77,121.45L124.92,205.14L125.37,119.56L125.52,205.06L125.67,124.54L125.67,205.18L125.97,118.91L126.42,205.15L126.57,121.25L126.72,119.14L127.03,205.16L127.18,205.06L127.33,120.62L127.48,119.26L127.78,205.14L127.93,204.97L128.08,119.19L128.53,205.11L128.83,204.85L128.98,121.86L129.13,205.17L129.58,119.5L129.73,205.07L129.89,125.28L129.89,205.18L130.19,119.97L130.64,205.16L130.79,120.02L130.94,119.83L131.24,205.18L131.54,204.85L131.69,119.68L131.99,205.15L132.29,118.97L132.44,204.9L132.59,123.35L132.59,205.09L133.05,119.55L133.2,204.98L133.35,125.07L133.65,120L134.1,205.16L134.25,121.96L134.4,119.42L134.7,205.14L135,204.87L135.15,120.7L135.45,205.17L135.75,120.6L135.75,204.9L135.91,120.24L136.21,205.15L136.66,204.89L136.81,123.89L137.26,119.56L137.56,205.14L137.71,123.4L137.86,119.65L138.31,205.18L138.46,204.99L138.61,120L138.92,205.15L139.22,204.89L139.37,119.81L139.67,205.19L140.12,119.7L140.12,204.83L140.27,123.23L140.42,205.16L140.72,119.99L141.02,205.08L141.17,124.28L141.47,118.79L141.78,205.14L141.93,123.41L142.08,119.08L142.53,205.18L142.68,204.99L142.83,118.87L143.13,205.15L143.58,204.85L143.73,121.65L143.88,205.18L144.33,119.72L144.48,205.04L144.63,125.03L144.63,205.15L144.94,119.68L145.24,205.11L145.39,124.1L145.69,119.15L145.99,205.13L146.14,205.05L146.29,119.98L146.74,205.16L147.04,119.64L147.04,204.83L147.19,121.38L147.34,205.16L147.8,119.8L147.8,204.85L147.95,122.31L148.1,205.18L148.55,119.34L148.7,205.04L148.85,123.31L148.85,205.13L149.15,119.12L149.6,205.09L149.75,120.34L149.9,118.27L150.2,205.14L150.5,204.81L150.65,120.58L150.96,205.18L151.26,119.97L151.26,204.84L151.41,120.42L151.71,205.16L152.01,120.11L152.16,205L152.31,125.37L152.31,205.18L152.61,120.1L153.06,205.17L153.21,122.66L153.36,120.14L153.66,205.1L153.82,205.08L153.97,121.72L154.12,119.31L154.42,205.16L154.72,204.86L154.87,120.78L155.17,205.17L155.47,119.36L155.62,204.89L155.77,125.03L156.22,119.63L156.52,205.18L156.67,123.45L156.98,119.71L157.28,205.18L157.43,120.65L157.58,120.18L157.88,205.12L158.18,204.93L158.33,119.57L158.63,205.15L159.08,204.89L159.23,123.71L159.38,205.18L159.69,119.6L159.84,204.91L159.99,124.12L160.44,119.23L160.74,205.19L160.89,123.31L161.19,119.71L161.49,205.14L161.64,204.94L161.79,119.79L162.24,205.12L162.54,204.85L162.7,122.69L162.85,205.14L163.15,119.36L163.45,205.08L163.6,125.62L163.6,205.19L163.9,119.4L164.35,205.16L164.5,120.48L164.65,119.79L164.95,205.18L165.25,204.85L165.4,119.82L165.71,205.16L166.01,119.01L166.01,204.81L166.16,121.66L166.31,205.12L166.76,120.76L166.91,204.99L167.06,124.4L167.36,120.26L167.81,205.19L167.96,121.35L168.11,120.18L168.41,205.15L168.56,205.14L168.72,121.05L168.87,120.01L169.17,205.18L169.47,204.87L169.62,119.08L169.92,205.16L170.37,204.89L170.52,123.96L170.97,120.04L171.27,205.13L171.42,123.56L171.73,119.58L172.03,205.19L172.18,120.61L172.33,118.95L172.63,205.14L172.93,204.93L173.08,119.62L173.38,205.19L173.83,204.9L173.98,121.98L174.13,205.13L174.43,120.39L174.58,204.95L174.74,124.04L175.19,119.79L175.49,205.16L175.64,123.5L175.79,119.29L176.24,205.18L176.39,204.94L176.54,120.15L176.84,205.15L177.29,119.65L177.29,204.83L177.44,121.6L177.6,205.19L178.05,120.1L178.05,204.85L178.2,123.09L178.35,205.15L178.8,120.55L178.95,205.11L179.1,125.07L179.1,205.16L179.4,119.66L179.85,205.04L180,120.54L180.45,205.18L180.61,204.98L180.76,120.04L181.06,205.15L181.51,119.85L181.51,204.83L181.66,121.84L181.81,205.17L182.11,120.26L182.41,205.07L182.56,124.7L182.56,205.15L182.86,120.07L183.31,205.1L183.46,121.54L183.62,120.81L183.92,205.14L184.07,205.06L184.22,119.86L184.67,205.19L184.97,204.84L185.12,121.04L185.42,205.15L185.72,120.62L185.87,204.94L186.02,125.61L186.02,205.19L186.47,119.99L186.63,205.06L186.78,125.45L186.78,205.18L187.08,119.02L187.53,205.12L187.68,120.66L187.83,119.65L188.13,205.14L188.43,204.88L188.58,120.56L188.88,205.17L189.18,118.89L189.33,204.95L189.48,124.8L189.48,205.15L189.94,117.91L190.09,204.98L190.24,125.07L190.24,205.19L190.69,120.12L190.99,205.15L191.14,121.42L191.29,119.99L191.59,205.12L191.89,204.92L192.04,119.27L192.34,205.16L192.65,204.84L192.8,120.14L193.1,205.19L193.4,119.35L193.55,204.88L193.7,125.15L193.7,205.16L194,120.76L194,204.9" style="vector-effect: non-scaling-stroke; fill: none; stroke: rgb(31, 119, 180); stroke-opacity: 1; stroke-width: 2px; opacity: 1;"/></g><g class="points"/><g class="text"/></g></g></g><g class="overplot"/><path class="xlines-above crisp" d="M0,0" style="fill: none;"/><path class="ylines-above crisp" d="M0,0" style="fill: none;"/><g class="overlines-above"/><g class="xaxislayer-above"><g class="xtick"><text text-anchor="middle" x="0" y="289" transform="translate(67.37,0)" style="font-family: 'Open Sans', verdana, arial, sans-serif; font-size: 12px; fill: rgb(68, 68, 68); fill-opacity: 1; white-space: pre; opacity: 1;">1.565M</text></g><g class="xtick"><text text-anchor="middle" x="0" y="289" style="font-family: 'Open Sans', verdana, arial, sans-serif; font-size: 12px; fill: rgb(68, 68, 68); fill-opacity: 1; white-space: pre; opacity: 1;" transform="translate(142.63,0)">1.57M</text></g><g class="xtick"><text text-anchor="middle" x="0" y="289" style="font-family: 'Open Sans', verdana, arial, sans-serif; font-size: 12px; fill: rgb(68, 68, 68); fill-opacity: 1; white-space: pre; opacity: 1;" transform="translate(217.88,0)">1.575M</text></g></g><g class="yaxislayer-above"><g class="ytick"><text text-anchor="end" x="59" y="4.199999999999999" transform="translate(0,267.03)" style="font-family: 'Open Sans', verdana, arial, sans-serif; font-size: 12px; fill: rgb(68, 68, 68); fill-opacity: 1; white-space: pre; opacity: 1;">0</text></g><g class="ytick"><text text-anchor="end" x="59" y="4.199999999999999" style="font-family: 'Open Sans', verdana, arial, sans-serif; font-size: 12px; fill: rgb(68, 68, 68); fill-opacity: 1; white-space: pre; opacity: 1;" transform="translate(0,202.67)">0.5</text></g><g class="ytick"><text text-anchor="end" x="59" y="4.199999999999999" style="font-family: 'Open Sans', verdana, arial, sans-serif; font-size: 12px; fill: rgb(68, 68, 68); fill-opacity: 1; white-space: pre; opacity: 1;" transform="translate(0,138.3)">1</text></g><g class="ytick"><text text-anchor="end" x="59" y="4.199999999999999" style="font-family: 'Open Sans', verdana, arial, sans-serif; font-size: 12px; fill: rgb(68, 68, 68); fill-opacity: 1; white-space: pre; opacity: 1;" transform="translate(0,73.93)">1.5</text></g></g><g class="overaxes-above"/></g></g><g class="polarlayer"/><g class="smithlayer"/><g class="ternarylayer"/><g class="geolayer"/><g class="funnelarealayer"/><g class="pielayer"/><g class="iciclelayer"/><g class="treemaplayer"/><g class="sunburstlayer"/><g class="glimages"/><defs id="topdefs-e10c03"><g class="clips"/><clipPath id="legende10c03"><rect width="102" height="29" x="0" y="0"/></clipPath></defs><g class="layer-above"><g class="imagelayer"/><g class="shapelayer"/></g><g class="infolayer"><g class="legend" pointer-events="all" transform="translate(257.88,60)"><rect class="bg" shape-rendering="crispEdges" width="102" height="29" x="0" y="0" style="stroke: rgb(68, 68, 68); stroke-opacity: 1; fill: rgb(255, 255, 255); fill-opacity: 1; stroke-width: 0px;"/><g class="scrollbox" transform="" clip-path="url(#legende10c03)"><g class="groups"><g class="traces" transform="translate(0,14.5)" style="opacity: 1;"><text class="legendtext" text-anchor="start" x="40" y="4.680000000000001" style="font-family: 'Open Sans', verdana, arial, sans-serif; font-size: 12px; fill: rgb(68, 68, 68); fill-opacity: 1; white-space: pre;">Avg. EER</text><g class="layers" style="opacity: 1;"><g class="legendfill"/><g class="legendlines"><path class="js-line" d="M5,0h30" style="fill: none; stroke: rgb(31, 119, 180); stroke-opacity: 1; stroke-width: 2px;"/></g><g class="legendsymbols"><g class="legendpoints"/></g></g><rect class="legendtoggle" x="0" y="-9.5" width="96.248046875" height="19" style="fill: rgb(0, 0, 0); fill-opacity: 0;"/></g></g></g><rect class="scrollbar" rx="20" ry="3" width="0" height="0" x="0" y="0" style="fill: rgb(128, 139, 164); fill-opacity: 1;"/></g><g class="g-gtitle"><text class="gtitle" x="186" y="30" text-anchor="middle" dy="0em" style="font-family: 'Open Sans', verdana, arial, sans-serif; font-size: 17px; fill: rgb(68, 68, 68); opacity: 1; font-weight: normal; white-space: pre;">Equal error rate</text></g><g class="g-xtitle"><text class="xtitle" x="157" y="328" text-anchor="middle" style="font-family: 'Open Sans', verdana, arial, sans-serif; font-size: 14px; fill: rgb(68, 68, 68); opacity: 1; font-weight: normal; white-space: pre;">Step</text></g><g class="g-ytitle"><text class="ytitle" transform="rotate(-90,22,168)" x="22" y="168" text-anchor="middle" style="font-family: 'Open Sans', verdana, arial, sans-serif; font-size: 14px; fill: rgb(68, 68, 68); opacity: 1; font-weight: normal; white-space: pre;">EER</text></g></g></svg>